<svg width="32" height="33" viewBox="0 0 32 33" fill="none" xmlns="http://www.w3.org/2000/svg">
<g clip-path="url(#clip0_1_272)">
<path d="M25.52 17.3881C25.5733 16.9881 25.6 16.5748 25.6 16.1348C25.6 15.7081 25.5733 15.2814 25.5067 14.8814L28.2133 12.7748C28.4533 12.5881 28.52 12.2281 28.3733 11.9614L25.8133 7.53478C25.6533 7.24144 25.32 7.14811 25.0267 7.24144L21.84 8.52144C21.1733 8.01478 20.4667 7.58811 19.68 7.26811L19.2 3.88144C19.1467 3.56144 18.88 3.33478 18.56 3.33478H13.44C13.12 3.33478 12.8667 3.56144 12.8133 3.88144L12.3333 7.26811C11.5467 7.58811 10.8267 8.02811 10.1733 8.52144L6.98666 7.24144C6.69333 7.13478 6.36 7.24144 6.2 7.53478L3.65333 11.9614C3.49333 12.2414 3.54667 12.5881 3.81333 12.7748L6.52 14.8814C6.45333 15.2814 6.4 15.7214 6.4 16.1348C6.4 16.5481 6.42667 16.9881 6.49333 17.3881L3.78667 19.4948C3.54667 19.6814 3.48 20.0414 3.62667 20.3081L6.18667 24.7348C6.34667 25.0281 6.68 25.1214 6.97333 25.0281L10.16 23.7481C10.8267 24.2548 11.5333 24.6814 12.32 25.0014L12.8 28.3881C12.8667 28.7081 13.12 28.9348 13.44 28.9348H18.56C18.88 28.9348 19.1467 28.7081 19.1867 28.3881L19.6667 25.0014C20.4533 24.6814 21.1733 24.2548 21.8267 23.7481L25.0133 25.0281C25.3067 25.1348 25.64 25.0281 25.8 24.7348L28.36 20.3081C28.52 20.0148 28.4533 19.6814 28.2 19.4948L25.52 17.3881ZM16 20.9348C13.36 20.9348 11.2 18.7748 11.2 16.1348C11.2 13.4948 13.36 11.3348 16 11.3348C18.64 11.3348 20.8 13.4948 20.8 16.1348C20.8 18.7748 18.64 20.9348 16 20.9348Z" fill="#FDFDFD"/>
</g>
<defs>
<clipPath id="clip0_1_272">
<rect width="32" height="32" fill="white" transform="translate(0 0.134766)"/>
</clipPath>
</defs>
</svg>
